<svg viewBox="0 0 16 16" xmlns="http://www.w3.org/2000/svg" fill-rule="evenodd" clip-rule="evenodd" stroke-linejoin="round" stroke-miterlimit="1.414" fill="#fff"><path d="M0 7.78C0 4.053 3.027.56 7.018.06c2.86-.333 5.023.765 6.52 2.196 1.396 1.33 2.228 3.028 2.428 5.025.166 1.998-.266 3.73-1.43 5.36-1.164 1.597-3.46 3.36-6.32 3.36H4.324V8.314c.034-1.697.6-3.162 2.66-3.86 1.797-.533 3.893.465 4.525 2.362.663 2.03-.3 3.395-1.43 4.227-1.133.832-2.896.832-4.06.033v2.63c.765.365 1.73.465 2.43.43 2.525-.365 4.49-1.796 5.32-3.96.865-2.295.266-4.957-1.53-6.62-2.16-1.765-4.524-2.197-7.05-.966-1.764.897-2.995 2.727-3.295 4.723V16H.033L0 7.78z" fill-rule="nonzero"/></svg>